<svg data-v-3c87b7b4="" xmlns="http://www.w3.org/2000/svg" width="267.7161071777344" height="42" viewBox="0 0 223.0967559814453 35" class="badge-svg"><defs data-v-3c87b7b4=""><!----><filter data-v-3c87b7b4="" id="secondaryShadow" x="-50%" y="-50%" width="200%" height="200%"><feGaussianBlur data-v-3c87b7b4="" in="SourceAlpha" stdDeviation="0"/><feOffset data-v-3c87b7b4="" dx="0" dy="0" result="offsetblur"/><feFlood data-v-3c87b7b4="" flood-color="#000000"/><feComposite data-v-3c87b7b4="" in2="offsetblur" operator="in"/><feMerge data-v-3c87b7b4=""><feMergeNode data-v-3c87b7b4=""/><feMergeNode data-v-3c87b7b4="" in="SourceGraphic"/></feMerge></filter><!----></defs><path data-v-3c87b7b4="" d="M 10 0 L 123.77037048339844 0 L 123.77037048339844 35 L 10 35 Q 0 35 0 25 L 0 10 Q 0 0 10 0 Z" fill="#9651db"/><path data-v-3c87b7b4="" d="M 123.77037048339844 0 L 213.0967559814453 0 Q 223.0967559814453 0 223.0967559814453 10 L 223.0967559814453 25 Q 223.0967559814453 35 213.0967559814453 35 L 123.77037048339844 35 Z" fill="#782fc1"/><g data-v-3c87b7b4="" transform="translate(10, 7.5) scale(0.8333333333333334)"><path data-v-3c87b7b4="" d="M12 0a12 12 0 1012 12A12 12 0 0012 0zm0 23.52A11.52 11.52 0 1123.52 12 11.52 11.52 0 0112 23.52zm7.13-9.791c-.206.997-1.126 3.557-4.06 4.942l-1.179-1.325-1.988 2a7.338 7.338 0 01-5.804-2.978 2.859 2.859 0 00.65.123c.326.006.678-.114.678-.66v-5.394a.89.89 0 00-1.116-.89c-.92.212-1.656 2.509-1.656 2.509a7.304 7.304 0 012.528-5.597 7.408 7.408 0 013.73-1.721c-1.006.573-1.57 1.507-1.57 2.29 0 1.262.76 1.109.984.923v7.28a1.157 1.157 0 00.148.256 1.075 1.075 0 00.88.445c.76 0 1.747-.868 1.747-.868V9.172c0-.6-.452-1.324-.905-1.572 0 0 .838-.149 1.484.346a5.537 5.537 0 01.387-.425c1.508-1.48 2.929-1.902 4.112-2.112 0 0-2.151 1.69-2.151 3.96 0 1.687.043 5.801.043 5.801.799.771 1.986-.342 3.059-1.441Z" fill="#ffffff" data-darkreader-inline-fill="" style="--darkreader-inline-fill: var(--darkreader-text-3e0f0f, #d0ccc5);"/></g><text data-v-3c87b7b4="" x="73.88518524169922" y="17.5" dy="0.35em" font-size="12" font-family="Roboto, sans-serif" fill="#FFFFFF" text-anchor="middle" letter-spacing="2" font-weight="600" font-style="normal" text-decoration="none" fill-opacity="1" font-variant="normal" style="text-transform: uppercase; --darkreader-inline-fill: var(--darkreader-text-ffffff, #e8e6e3);" data-darkreader-inline-fill="">UNREAL 5</text><!----><text data-v-3c87b7b4="" x="173.43356323242188" y="17.5" dy="0.35em" font-size="12" font-family="Roboto, sans-serif" fill="#ffffff" text-anchor="middle" font-weight="700" letter-spacing="2" font-style="normal" text-decoration="none" fill-opacity="1" font-variant="normal" style="text-transform: capitalize; --darkreader-inline-fill: var(--darkreader-text-ffffff, #e8e6e3);" data-darkreader-inline-fill="" filter="url(#secondaryShadow)">Blueprints</text><!----></svg>